<?xml version="1.0" standalone="no"?><!DOCTYPE svg PUBLIC "-//W3C//DTD SVG 1.1//EN" "http://www.w3.org/Graphics/SVG/1.1/DTD/svg11.dtd"><svg t="1715059769825" class="icon" viewBox="0 0 1024 1024" version="1.1" xmlns="http://www.w3.org/2000/svg" p-id="5357" xmlns:xlink="http://www.w3.org/1999/xlink" width="200" height="200"><path d="M589.008 64a99.008 99.008 0 0 1 98 84.88l0.384 3.12h77.6A99.008 99.008 0 0 1 864 251.008v594A98.992 98.992 0 0 1 764.992 944H259.024A98.992 98.992 0 0 1 160 845.008V251.008A99.008 99.008 0 0 1 259.008 152h77.6l0.416-3.312A99.024 99.024 0 0 1 434.992 64h154z m83.248 152.544a98.912 98.912 0 0 1-83.248 45.456h-154.016a98.912 98.912 0 0 1-83.248-45.44l0.928 1.44h-93.68c-18.224 0-32.992 14.768-32.992 33.008v594c0 18.208 14.784 32.992 33.008 32.992h506c18.224 0 32.992-14.768 32.992-32.992V251.008c0-18.24-14.768-33.008-33.008-33.008h-93.664l0.928-1.44z m-10.992 143.536a32 32 0 0 1 4.4 43.04l-1.76 2.144L583.248 496H656a32 32 0 1 1 0 64h-112v48h112a32 32 0 1 1 0 64h-112v96a32 32 0 1 1-64 0v-96h-112a32 32 0 1 1 0-64h112v-48h-112a32 32 0 1 1 0-64h72.752l-80.672-90.736a32 32 0 0 1 45.92-44.512l1.92 1.984L512 479.84l104.08-117.104a32 32 0 0 1 45.184-2.656z m-72.272-230.08h-153.984a33.008 33.008 0 0 0 0 66h154a32.992 32.992 0 1 0 0-66z" fill="#4A4A4A" p-id="5358"></path></svg>