<?xml version="1.0" standalone="no"?><!DOCTYPE svg PUBLIC "-//W3C//DTD SVG 1.1//EN" "http://www.w3.org/Graphics/SVG/1.1/DTD/svg11.dtd"><svg t="1681542324325" class="icon" viewBox="0 0 1024 1024" version="1.1" xmlns="http://www.w3.org/2000/svg" p-id="5403" xmlns:xlink="http://www.w3.org/1999/xlink" width="200" height="200"><path d="M870.4 1024h-716.8A51.2 51.2 0 0 1 102.4 972.8v-921.6A51.2 51.2 0 0 1 153.6 0h569.685333a42.666667 42.666667 0 0 1 30.037334 12.288l155.989333 155.989333a42.666667 42.666667 0 0 1 12.288 30.037334V972.8a51.2 51.2 0 0 1-51.2 51.2zM153.6 34.133333a17.066667 17.066667 0 0 0-17.066667 17.066667v921.6a17.066667 17.066667 0 0 0 17.066667 17.066667h716.8a17.066667 17.066667 0 0 0 17.066667-17.066667V198.314667a7.168 7.168 0 0 0-2.389334-5.802667l-155.989333-155.989333a7.168 7.168 0 0 0-5.802667-2.389334z" fill="#4D4D4D" p-id="5404"></path><path d="M904.533333 204.8h-170.666666a17.066667 17.066667 0 0 1-17.066667-17.066667v-170.666666h34.133333V170.666667h153.6z" fill="#4D4D4D" p-id="5405"></path><path d="M204.8 170.666667h443.733333v34.133333H204.8zM204.8 307.2h614.4v34.133333H204.8zM204.8 443.733333h614.4v34.133334H204.8zM204.8 580.266667h614.4v34.133333H204.8zM204.8 853.333333h614.4v34.133334H204.8zM204.8 716.8h614.4v34.133333H204.8z" fill="#B3B3B3" p-id="5406"></path><path d="M51.2 460.8m17.066667 0l887.466666 0q17.066667 0 17.066667 17.066667l0 273.066666q0 17.066667-17.066667 17.066667l-887.466666 0q-17.066667 0-17.066667-17.066667l0-273.066666q0-17.066667 17.066667-17.066667Z" fill="#F33958" p-id="5407"></path><path d="M955.733333 477.866667v273.066666H68.266667v-273.066666h887.466666m0-34.133334H68.266667a34.133333 34.133333 0 0 0-34.133334 34.133334v273.066666a34.133333 34.133333 0 0 0 34.133334 34.133334h887.466666a34.133333 34.133333 0 0 0 34.133334-34.133334v-273.066666a34.133333 34.133333 0 0 0-34.133334-34.133334z" fill="#C42E47" p-id="5408"></path><path d="M348.16 530.090667a55.978667 55.978667 0 1 1 0 111.616H307.2v57.002666h-24.917333v-168.618666zM307.2 618.837333h34.133333c22.528 0 35.84-11.605333 35.84-32.426666s-12.970667-34.133333-35.84-34.133334H307.2zM509.952 530.090667A74.410667 74.410667 0 0 1 589.141333 614.4a75.093333 75.093333 0 0 1-79.189333 84.992h-60.757333v-169.301333z m-34.133333 144.725333h31.744A52.906667 52.906667 0 0 0 562.858667 614.4a53.248 53.248 0 0 0-55.637334-60.074667h-31.744zM636.586667 698.709333v-168.618666h105.130666v23.893333h-78.848v51.882667h72.021334v22.869333h-72.021334v68.266667z" fill="#FFFFFF" p-id="5409"></path></svg>