<?xml version="1.0" standalone="no"?><!DOCTYPE svg PUBLIC "-//W3C//DTD SVG 1.1//EN" "http://www.w3.org/Graphics/SVG/1.1/DTD/svg11.dtd"><svg t="1734399139382" class="icon" viewBox="0 0 1024 1024" version="1.1" xmlns="http://www.w3.org/2000/svg" p-id="10468" xmlns:xlink="http://www.w3.org/1999/xlink" width="256" height="256"><path d="M896 1024H128a128 128 0 0 1-128-128V128a128 128 0 0 1 128-128h768a128 128 0 0 1 128 128v768a128 128 0 0 1-128 128zM124.032 736c35.328 61.248 138.432 67.84 230.4 14.848l-64-110.848 166.4-96c-35.328-61.248-138.432-67.84-230.4-14.848s-137.728 145.6-102.4 206.848z m370.816-509.696c-52.992-91.84-145.6-137.6-206.848-102.4s-67.904 138.432-14.848 230.4l110.848-64 96 166.4c61.248-35.456 67.84-138.56 14.848-230.4z m34.304 571.392c52.992 91.84 145.6 137.6 206.848 102.4s67.84-138.432 14.848-230.4l-110.848 64-96-166.4c-61.248 35.456-67.84 138.56-14.848 230.4zM899.968 288c-35.328-61.248-138.432-67.84-230.4-14.848l64 110.848-166.4 96c35.328 61.248 138.432 67.84 230.4 14.848s137.728-145.6 102.4-206.848z" fill="#9092A5" p-id="10469"></path></svg>