<?xml version="1.0" standalone="no"?><!DOCTYPE svg PUBLIC "-//W3C//DTD SVG 1.1//EN" "http://www.w3.org/Graphics/SVG/1.1/DTD/svg11.dtd"><svg t="1734398368241" class="icon" viewBox="0 0 1914 1024" version="1.1" xmlns="http://www.w3.org/2000/svg" p-id="6634" xmlns:xlink="http://www.w3.org/1999/xlink" width="373.828125" height="200"><path d="M1027.227826 291.06087h-136.481391V187.213913h137.460869v103.824696h-0.979478z m0 134.900869h-136.481391V322.114783h137.460869v103.846956h-0.979478z m0 330.907826h-136.481391v-30.096695h137.460869V756.869565h-0.979478z m0-196.029217h-136.481391V457.015652h137.460869v103.824696h-0.979478z m0 134.900869h-136.481391v-103.846956h137.460869v103.846956h-0.979478zM1669.565217 88.242087H1438.564174v-27.158261c0-21.348174 12.666435-38.822957 29.250783-38.822956h172.521739c15.582609 0 29.228522 17.452522 29.228521 38.800695v27.158261z m-297.271652 0H1141.270261v-27.158261c0-21.348174 12.688696-38.822957 29.250782-38.822956h172.52174c15.582609 0 29.250783 17.452522 29.250782 38.800695v27.158261zM845.913043 88.219826v-27.158261C845.913043 39.713391 858.601739 22.26087 875.163826 22.26087h172.521739c15.582609 0 29.250783 17.452522 29.250783 38.800695v27.158261H845.913043z" fill="#000000" p-id="6635"></path><path d="M814.302609 133.565217C679.913739 133.565217 645.565217 266.061913 645.565217 412.783304v62.820174c0 147.72313 34.348522 279.218087 168.737392 279.218087h50.999652V142.157913h22.550261v23.81913h139.308521v-23.81913h22.572522V756.869565H1701.175652C1835.586783 756.869565 1869.913043 624.417391 1869.913043 477.651478v-62.820174c0-147.72313-34.326261-279.218087-168.737391-279.218087 0-1.914435-886.828522-1.914435-886.828522-1.914434L814.302609 133.565217z" fill="#000000" p-id="6636"></path><path d="M1045.23687 823.652174h-143.538087v-33.903304H1046.26087V823.652174h-1.024zM890.434783 321.29113h11.264V289.391304H890.434783v31.899826z" fill="#000000" p-id="6637"></path><path d="M556.521739 801.391304v111.304348h1357.913044V801.391304H1057.52487v68.674783h-21.370435v-5.342609h-137.216v5.342609h-22.372174V801.391304z" fill="#000000" p-id="6638"></path><path d="M249.07687 801.391304h-0.979479c-63.22087 0.111304-114.42087 49.864348-114.532174 111.304348 0.111304 61.417739 51.333565 111.170783 114.532174 111.282087h1.936696c63.087304-0.934957 113.574957-52.825043 111.616-114.109217-1.825391-59.525565-51.311304-107.208348-112.573217-108.477218m1301.637565 111.304348c0-61.462261-51.266783-111.304348-114.532174-111.304348-63.24313 0-114.532174 49.842087-114.532174 111.304348 0 61.44 51.289043 111.282087 114.532174 111.282087 63.22087-0.111304 114.42087-49.864348 114.532174-111.282087m137.861565-111.304348C1751.841391 801.391304 1803.130435 851.233391 1803.130435 912.695652s-51.289043 111.304348-114.554435 111.304348-114.554435-49.842087-114.554435-111.304348c0.111304-61.44 51.333565-111.193043 114.554435-111.304348" fill="#000000" p-id="6639"></path><path d="M879.794087 83.433739H890.434783V38.800696h-10.640696v44.633043zM210.253913 316.215652c-27.136 0-38.733913-12.621913-18.409739-52.379826l101.732174-177.619478h265.48313v230.867478H210.231652v-0.868174zM17.430261 741.042087c0 19.411478-17.430261 32.990609-17.430261 50.465391C0.979478 846.781217 28.093217 890.434783 28.093217 890.434783h589.022609V0H270.336l-189.885217 316.215652s-45.568 33.947826-55.251479 67.895652C10.640696 431.638261 16.473043 650.841043 17.430261 741.042087z" fill="#000000" p-id="6640"></path></svg>