<?xml version="1.0" encoding="UTF-8"?>
<svg xmlns="http://www.w3.org/2000/svg" id="Layer_1" data-name="Layer 1" viewBox="0 0 24 24">
  <path d="m20.5,0H3.5C1.57,0,0,1.57,0,3.5v15.5h2v3h2v2h5v-2h6v2h5v-2h2v-3h2V3.5c0-1.93-1.57-3.5-3.5-3.5ZM6.5,19c-.828,0-1.5-.672-1.5-1.5s.672-1.5,1.5-1.5,1.5.672,1.5,1.5-.672,1.5-1.5,1.5Zm-.007-6l1.312-2.717c.083-.172.26-.283.45-.283h7.49c.19,0,.367.111.45.283l1.312,2.717H6.493Zm11.007,6c-.828,0-1.5-.672-1.5-1.5s.672-1.5,1.5-1.5,1.5.672,1.5,1.5-.672,1.5-1.5,1.5Zm3.5-5.631c-.077-.181-.158-.36-.243-.537l-1.86-3.854c-.58-1.202-1.817-1.979-3.151-1.979h-7.49c-1.334,0-2.571.776-3.151,1.979l-1.86,3.854c-.085.177-.166.356-.243.537V3.5c0-.275.225-.5.5-.5h17c.275,0,.5.225.5.5v9.869Z"/>
</svg>
