<?xml version="1.0" encoding="UTF-8"?>
<svg xmlns="http://www.w3.org/2000/svg" id="Layer_1" data-name="Layer 1" viewBox="0 0 24 24">
  <path d="m24,10.5c0-3.033-2.468-5.5-5.5-5.5h-1.5v-.5c0-1.93-1.57-3.5-3.5-3.5H3.5C1.59,1,.038,2.54.006,4.442l-.006.004v2.786l3.158-3.232h10.342c.275,0,.5.224.5.5v12.5H3v-.161l-3-3.07v6.231h3.061c-.034.162-.061.327-.061.5,0,1.381,1.119,2.5,2.5,2.5s2.5-1.119,2.5-2.5c0-.173-.027-.338-.061-.5h8.122c-.034.162-.061.327-.061.5,0,1.381,1.119,2.5,2.5,2.5s2.5-1.119,2.5-2.5c0-.173-.027-.338-.061-.5h3.061v-9.5Zm-5.5-2.5c1.379,0,2.5,1.122,2.5,2.5v2.5h-4v-5h1.5Zm-14.5-2v3h7v3h-7v3L.293,11.207c-.39-.39-.39-1.024,0-1.414l3.707-3.793Z"/>
</svg>
