<?xml version="1.0" encoding="UTF-8"?>
<svg xmlns="http://www.w3.org/2000/svg" id="Layer_1" data-name="Layer 1" viewBox="0 0 24 24">
  <path d="m24,11.5c0-3.032-2.467-5.5-5.5-5.5h-1.5v-.5c0-1.93-1.57-3.5-3.5-3.5h-.5v3h.5c.276,0,.5.225.5.5v12.5H3v-6H0v9h3.061c-.034.162-.061.327-.061.5,0,1.381,1.119,2.5,2.5,2.5s2.5-1.119,2.5-2.5c0-.173-.027-.338-.061-.5h8.122c-.034.162-.061.327-.061.5,0,1.381,1.119,2.5,2.5,2.5s2.5-1.119,2.5-2.5c0-.173-.027-.338-.061-.5h3.061v-9.5Zm-5.5-2.5c1.378,0,2.5,1.121,2.5,2.5v2.5h-4v-5h1.5Zm-7.5-7c0-1.105-.895-2-2-2H2C.895,0,0,.895,0,2v8h11V2Zm-4,3h-3v-2h3v2Z"/>
</svg>
